<?xml version="1.0" standalone="no"?>
<!DOCTYPE svg PUBLIC "-//W3C//DTD SVG 20010904//EN"
 "http://www.w3.org/TR/2001/REC-SVG-20010904/DTD/svg10.dtd">
<svg version="1.0" xmlns="http://www.w3.org/2000/svg"
 width="280.000000pt" height="280.000000pt" viewBox="0 0 280.000000 280.000000"
 preserveAspectRatio="xMidYMid meet">

<g transform="translate(0.000000,280.000000) scale(0.100000,-0.100000)"
fill="#000000" stroke="none">
<path d="M1250 2794 c-81 -10 -238 -48 -319 -76 -188 -66 -344 -163 -493 -307
-217 -208 -346 -439 -410 -734 -31 -145 -31 -407 0 -554 61 -283 177 -497 382
-704 203 -206 430 -330 710 -390 138 -29 400 -32 533 -6 289 58 525 184 733
391 203 204 326 430 385 706 30 140 32 401 5 535 -55 277 -175 508 -366 708
-204 214 -441 346 -728 407 -94 20 -347 34 -432 24z m425 -49 c175 -39 348
-112 495 -210 97 -64 301 -268 365 -365 103 -155 170 -318 212 -510 25 -119
25 -400 0 -520 -61 -286 -192 -526 -395 -722 -194 -188 -420 -307 -692 -365
-119 -25 -401 -25 -519 0 -293 63 -507 179 -711 386 -168 170 -265 327 -334
541 -52 160 -70 295 -63 475 11 287 99 538 265 762 223 299 546 488 937 547
65 10 371 -3 440 -19z"/>
<path d="M1190 2706 c-297 -53 -529 -175 -733 -383 -182 -185 -298 -403 -354
-663 -25 -118 -25 -401 0 -517 58 -269 169 -474 362 -669 194 -196 405 -311
677 -371 117 -25 399 -25 516 0 530 116 923 509 1039 1039 25 117 25 399 0
516 -38 174 -108 339 -204 485 -65 98 -259 291 -358 356 -142 93 -300 160
-465 196 -102 23 -380 29 -480 11z m394 -176 c21 -70 22 -70 41 23 3 16 12 27
21 27 12 0 15 -6 11 -22 -3 -13 -11 -56 -18 -95 -10 -58 -16 -73 -30 -73 -13
0 -22 15 -33 54 -9 30 -16 60 -16 68 -1 27 -17 -17 -24 -64 -7 -46 -18 -59
-31 -38 -3 5 2 50 11 100 21 112 39 118 68 20z m-374 45 c0 -8 -6 -15 -14 -15
-25 0 -27 -17 -11 -79 19 -73 19 -91 1 -91 -10 0 -20 24 -31 74 -15 68 -19 75
-43 78 -41 5 -36 24 10 35 64 16 88 15 88 -2z m-370 -205 c46 -76 48 -110 9
-130 -43 -23 -72 -9 -117 59 -23 35 -41 69 -39 74 8 24 24 14 52 -34 37 -62
57 -81 79 -73 25 10 19 38 -19 99 -33 50 -38 75 -16 75 5 0 28 -31 51 -70z
m1200 48 c0 -10 -37 -163 -46 -187 -8 -23 -32 6 -26 34 6 33 -38 56 -70 36
-14 -9 -24 -9 -31 -2 -10 10 -6 14 100 102 42 34 73 42 73 17z m-646 -110 c-5
-8 0 -9 14 -6 12 4 20 2 16 -3 -3 -5 2 -9 11 -9 10 0 13 -5 9 -12 -4 -6 -3 -9
2 -6 5 3 15 0 22 -8 11 -12 9 -14 -11 -14 -20 0 -40 11 -87 47 -2 2 2 8 10 13
20 13 23 12 14 -2z m-54 -14 c22 -9 38 -20 35 -24 -3 -5 1 -11 7 -13 7 -3 2
-6 -12 -6 -30 -1 -93 35 -85 49 8 13 7 13 55 -6z m165 6 c14 -6 15 -9 5 -10
-8 0 -1 -7 15 -15 17 -7 26 -14 20 -14 -5 -1 -3 -6 5 -11 13 -8 13 -10 -1 -10
-20 0 -81 40 -87 58 -4 14 13 15 43 2z m75 -12 c0 -6 3 -9 6 -5 8 8 33 -16 27
-25 -2 -5 3 -8 12 -8 11 0 15 5 11 15 -4 10 1 15 15 15 11 0 17 -4 14 -10 -3
-5 1 -10 10 -10 9 0 13 -4 10 -10 -3 -5 1 -10 9 -10 9 0 16 -2 16 -4 0 -2 3
-11 6 -20 9 -25 -19 -19 -45 8 -13 14 -30 22 -38 19 -12 -5 -12 -7 -1 -14 9
-6 9 -9 1 -9 -15 0 -83 58 -83 71 0 5 7 9 15 9 8 0 15 -5 15 -12z m-313 -11
c12 -5 19 -15 16 -20 -4 -6 0 -8 11 -4 10 4 15 3 11 -3 -3 -6 -13 -10 -20 -10
-25 0 -95 32 -90 40 7 12 45 10 72 -3z m-69 -26 c12 -6 22 -14 22 -17 0 -3 -4
-2 -10 1 -5 3 -10 2 -10 -3 0 -10 -58 -1 -79 12 -36 22 36 29 77 7z m-204 -10
c3 -5 -5 -12 -19 -15 -13 -3 -36 -19 -50 -34 -25 -27 -34 -49 -15 -37 6 3 10
1 10 -6 0 -8 5 -7 17 2 15 12 16 12 8 -1 -8 -13 -7 -13 8 -1 12 9 17 10 17 2
0 -7 6 -9 13 -6 6 4 3 -1 -8 -10 -12 -9 -32 -15 -47 -12 -33 4 -38 -17 -9 -33
33 -17 60 -11 78 18 9 15 17 28 17 29 1 1 14 5 30 9 29 7 29 7 23 -31 -3 -21
-14 -46 -23 -56 -16 -18 -16 -20 1 -39 10 -11 29 -20 43 -20 23 0 24 1 9 18
-13 15 -14 20 -2 42 8 14 15 48 16 75 1 42 2 46 9 23 8 -26 0 -84 -15 -107 -4
-7 1 -21 10 -31 16 -17 20 -16 117 30 71 33 105 55 115 73 39 76 153 56 169
-29 5 -28 2 -42 -14 -63 l-21 -28 66 -6 c127 -12 221 -78 274 -191 23 -50 41
-71 99 -114 78 -60 116 -104 152 -177 36 -73 111 -265 106 -270 -3 -3 -23 11
-46 30 l-41 35 -11 -55 c-14 -68 -54 -145 -115 -225 -55 -72 -117 -200 -140
-290 -9 -36 -20 -69 -24 -73 -4 -4 -28 1 -52 11 -77 33 -137 43 -308 51 -91 5
-188 15 -214 21 -26 7 -50 11 -52 8 -3 -2 0 -19 5 -38 5 -19 8 -35 6 -37 -7
-8 -145 67 -179 96 -49 43 -86 101 -113 175 -35 99 -39 172 -15 310 11 65 22
120 24 123 2 2 23 -42 46 -98 23 -57 49 -112 57 -123 13 -19 14 -17 14 27 l0
47 40 0 40 0 0 230 0 230 -39 0 c-22 0 -41 5 -43 10 -6 18 -155 -56 -163 -79
-7 -23 -53 -51 -84 -51 -54 0 -101 49 -101 106 0 38 59 94 99 94 22 0 55 18
115 62 81 60 84 63 72 86 -8 16 -31 30 -61 41 -27 9 -50 21 -52 28 -3 7 11 3
34 -8 20 -10 45 -19 55 -19 17 0 58 -64 47 -73 -68 -57 -186 -136 -197 -132
-7 2 -28 -1 -46 -9 -69 -29 -67 -127 4 -156 37 -16 85 1 103 36 8 14 45 39 95
63 63 31 82 45 82 61 0 11 -3 20 -6 20 -4 0 -49 -20 -100 -44 -68 -32 -97 -52
-103 -69 -20 -53 -85 -40 -79 16 3 29 6 32 43 35 31 3 62 20 142 80 115 85
120 95 81 168 -19 36 -27 43 -61 47 -51 7 -95 50 -103 99 -8 45 19 103 55 123
29 16 97 20 105 6z m761 -1 c-3 -5 2 -10 12 -10 15 0 16 -2 3 -10 -12 -8 -12
-10 5 -10 17 0 17 -2 5 -10 -12 -8 -12 -10 5 -10 15 0 17 -2 6 -9 -11 -7 -11
-9 0 -14 8 -3 9 -6 3 -6 -13 -1 -74 64 -74 79 0 6 9 10 21 10 11 0 17 -4 14
-10z m-681 -12 c-4 -7 0 -7 13 1 15 8 25 7 39 -4 18 -13 18 -14 1 -20 -9 -4
-38 -4 -63 0 -34 5 -43 9 -35 19 12 15 54 19 45 4z m762 -27 c17 -13 20 -21
12 -24 -7 -3 -4 -6 7 -6 17 -1 17 -3 5 -11 -11 -7 -11 -10 -2 -10 7 0 11 -4 8
-9 -4 -5 0 -12 6 -14 8 -4 7 -6 -4 -6 -18 -1 -51 40 -62 77 -9 27 -2 28 30 3z
m-840 -7 c-5 -12 -3 -14 6 -8 18 13 51 11 55 -2 5 -14 -32 -22 -80 -16 -31 3
-35 7 -26 18 6 8 15 12 19 9 5 -3 11 -1 15 5 10 16 18 12 11 -6z m909 -34 c-3
-5 -2 -10 4 -10 6 0 15 -10 22 -21 9 -17 8 -20 -3 -13 -11 6 -11 5 1 -9 7 -9
10 -17 5 -17 -5 0 -2 -5 6 -11 13 -9 13 -10 0 -6 -17 4 -60 64 -60 83 0 8 7
14 16 14 8 0 12 -4 9 -10z m444 -9 c9 -15 3 -27 -30 -65 -22 -25 -38 -46 -34
-46 3 0 28 10 56 21 40 17 52 19 64 9 8 -7 15 -16 15 -21 0 -4 -35 -33 -77
-63 -54 -39 -80 -53 -88 -45 -7 7 -2 16 17 30 73 54 76 61 14 34 -91 -39 -99
-23 -28 56 l47 54 -53 -39 c-33 -24 -58 -36 -69 -32 -9 4 -13 9 -10 12 15 15
153 113 159 114 4 0 12 -8 17 -19z m-1859 -36 c37 -19 47 -55 25 -89 -16 -25
-16 -26 12 -50 19 -17 25 -28 18 -35 -7 -7 -34 8 -85 45 -41 30 -76 58 -78 62
-3 9 62 82 72 82 4 0 20 -7 36 -15z m1486 -4 c-3 -5 0 -11 8 -14 8 -3 13 -14
12 -24 -2 -10 2 -21 8 -25 8 -5 8 -10 -1 -19 -13 -13 -36 18 -47 64 -5 21 -3
27 9 27 9 0 14 -4 11 -9z m68 -62 c-3 -5 2 -12 11 -15 13 -6 14 -8 3 -15 -10
-7 -10 -9 2 -9 13 0 13 -1 0 -10 -9 -6 -10 -10 -3 -10 6 0 11 -9 10 -20 -1
-19 -2 -19 -19 -3 -9 10 -20 37 -24 61 -6 37 -4 42 10 36 9 -3 13 -10 10 -15z
m-1228 -10 c9 -15 -14 -29 -49 -29 -19 0 -27 4 -24 13 2 6 10 11 16 10 6 -2
11 2 11 7 0 14 37 13 46 -1z m-35 -48 c6 10 9 10 9 2 0 -17 -39 -41 -78 -49
-38 -8 -42 7 -8 29 18 12 26 13 36 4 9 -9 11 -9 6 0 -3 6 0 13 6 16 7 2 15 0
17 -6 2 -5 7 -3 12 4z m1322 -10 c-2 -6 2 -11 7 -11 6 0 10 -5 10 -11 0 -5 -5
-7 -12 -3 -7 5 -8 3 -2 -7 11 -18 13 -59 3 -59 -10 0 -29 57 -29 87 0 16 5 23
13 20 6 -2 11 -10 10 -16z m-1375 -63 c-5 -17 -92 -61 -96 -49 -2 5 6 19 17
30 13 13 21 16 22 9 0 -10 2 -10 6 0 2 6 9 10 14 6 5 -3 9 0 9 5 0 6 7 11 16
11 9 0 14 -6 12 -12z m1430 1 c-2 -3 4 -14 12 -24 14 -17 13 -18 -4 -12 -14 6
-16 4 -9 -5 12 -16 11 -47 -1 -50 -13 -4 -27 52 -21 80 3 13 10 22 16 20 6 -2
9 -6 7 -9z m-1478 -73 c0 -15 -58 -56 -79 -56 -6 0 -11 7 -11 16 0 8 5 12 10
9 6 -3 10 2 10 12 0 15 2 16 10 3 8 -12 10 -12 10 5 0 15 3 17 9 7 7 -11 9
-11 14 2 8 20 27 21 27 2z m1531 -3 c12 -15 12 -16 -1 -8 -12 6 -13 5 -2 -6 6
-7 12 -17 12 -22 0 -4 -6 -5 -12 -1 -10 6 -10 4 0 -8 10 -13 10 -17 -4 -22 -9
-4 -14 -12 -10 -22 3 -8 2 -12 -4 -9 -17 10 -12 115 5 115 2 0 9 -8 16 -17z
m-1587 -95 c-11 -11 -31 -26 -46 -34 -26 -14 -28 -13 -28 6 0 12 5 18 10 15 6
-3 10 2 10 12 0 15 2 16 10 3 8 -13 10 -12 10 3 0 10 5 15 10 12 6 -3 10 -1
10 5 0 6 5 8 10 5 6 -3 10 0 11 7 0 11 2 11 6 0 3 -7 -3 -22 -13 -34z m1620
11 c-3 -5 0 -17 8 -26 7 -9 8 -14 2 -10 -7 4 -15 0 -18 -9 -3 -8 -2 -12 4 -9
6 4 5 -5 -2 -20 -10 -22 -13 -24 -21 -10 -5 9 -6 33 -2 53 8 45 14 54 26 46 5
-3 7 -10 3 -15z m-1643 -77 c-12 -22 -58 -62 -72 -62 -5 0 -9 7 -9 15 0 8 5
15 10 15 6 0 10 8 10 18 0 14 2 15 10 2 8 -13 10 -12 10 3 0 10 5 15 10 12 6
-3 10 -1 10 5 0 6 5 8 10 5 6 -3 10 -1 10 6 0 7 3 10 6 7 3 -4 1 -15 -5 -26z
m1677 -17 c0 -13 -4 -23 -8 -20 -4 2 -6 -7 -4 -20 1 -14 -2 -25 -7 -25 -6 0
-7 -4 -4 -10 3 -5 1 -10 -4 -10 -14 0 -14 48 0 88 12 36 27 35 27 -3z m-1729
-101 c-24 -25 -36 -31 -43 -23 -8 8 -7 13 2 16 6 3 12 11 12 19 0 9 5 12 10 9
6 -3 10 1 10 9 0 8 8 19 18 25 32 18 26 -19 -9 -55z m1756 36 c9 -15 -33 -103
-45 -95 -11 7 -8 26 12 78 11 28 22 34 33 17z m-1748 -72 c1 -12 -3 -28 -8
-35 -7 -8 -7 -18 -1 -29 11 -20 0 -59 -25 -86 -9 -10 -12 -22 -7 -30 6 -9 3
-9 -10 1 -18 15 -15 55 5 76 7 7 8 3 4 -10 -5 -15 -4 -16 3 -5 5 8 13 26 17
40 7 24 7 24 -12 7 -20 -18 -33 -14 -33 10 0 8 5 11 12 7 7 -5 9 -2 6 7 -3 8
1 20 8 27 8 7 14 9 15 5 0 -4 4 2 9 15 12 28 15 28 17 0z m1758 -38 c0 -15 -3
-26 -7 -24 -3 2 -11 -10 -17 -27 -6 -17 -15 -28 -21 -24 -15 9 -13 23 11 72
23 47 34 48 34 3z m6 -102 c-6 -13 -10 -17 -11 -8 0 8 -7 2 -15 -15 -7 -16
-14 -25 -14 -20 -1 6 -6 3 -11 -5 -17 -26 -12 8 6 43 26 52 36 61 46 44 4 -9
4 -26 -1 -39z m-1786 -87 c-20 -39 -32 -39 -32 -1 0 16 4 27 8 25 4 -3 13 10
20 28 l13 32 3 -27 c2 -15 -3 -40 -12 -57z m1777 8 c-5 -19 -14 -33 -21 -31
-6 1 -11 -6 -11 -15 0 -15 -2 -16 -10 -3 -8 12 -10 12 -10 1 0 -8 -3 -12 -6
-9 -7 8 13 47 39 75 26 29 31 24 19 -18z m-1767 -99 c-9 -18 -20 -29 -23 -25
-11 11 -9 54 2 48 5 -4 7 1 3 11 -5 11 -3 15 5 10 7 -5 9 -2 5 9 -3 9 -1 18 6
20 19 6 20 -38 2 -73z m-152 43 c2 -5 7 -25 11 -45 5 -30 3 -41 -14 -58 -40
-40 -110 -14 -110 42 0 16 -6 17 -40 12 -32 -5 -40 -4 -40 9 0 11 16 19 53 26
28 5 61 12 72 14 34 8 64 7 68 0z m1911 -28 c-5 -20 -9 -23 -15 -13 -6 9 -9 6
-9 -12 0 -20 -2 -22 -10 -10 -8 13 -10 13 -10 -1 0 -9 -7 -16 -15 -16 -13 0
-13 4 1 26 17 26 56 62 62 56 2 -1 0 -15 -4 -30z m166 15 c0 -11 -6 -20 -14
-20 -16 0 -29 -27 -20 -41 10 -17 31 -9 42 15 6 14 22 32 35 41 46 30 105 -15
91 -69 -7 -29 -19 -41 -51 -50 -19 -6 -23 -3 -23 12 0 11 9 22 20 25 12 3 20
14 20 26 0 29 -30 40 -44 17 -26 -44 -44 -58 -71 -58 -52 0 -74 63 -35 102 11
11 27 20 35 20 8 0 15 -9 15 -20z m-1891 -63 c0 -12 -6 -38 -13 -56 -9 -27
-15 -31 -21 -21 -14 23 -13 49 2 54 7 3 13 11 13 18 0 9 -3 8 -10 -2 -13 -20
-13 -4 1 21 12 24 29 16 28 -14z m1711 -20 c0 -7 -7 -23 -16 -36 -13 -18 -18
-20 -25 -10 -7 11 -9 10 -9 -4 0 -10 -4 -15 -10 -12 -5 3 -10 0 -11 -7 0 -10
-2 -10 -6 0 -3 8 10 29 28 48 35 36 49 42 49 21z m-1690 -74 c0 -55 -12 -84
-26 -62 -10 17 -13 50 -3 44 4 -3 10 2 13 11 4 9 2 13 -5 8 -8 -5 -8 -1 0 13
6 11 7 23 4 27 -3 3 -1 6 5 6 8 0 12 -18 12 -47z m1654 -31 c-25 -26 -62 -44
-68 -34 -7 11 4 24 39 49 35 25 56 14 29 -15z m-1806 -20 c2 -6 -26 -25 -62
-41 -70 -32 -88 -53 -64 -78 14 -13 23 -11 83 16 47 21 72 28 79 21 13 -13 3
-21 -70 -53 -72 -32 -95 -33 -116 -9 -45 50 -26 86 67 131 62 30 76 33 83 13z
m192 -42 c0 -44 -13 -69 -26 -49 -14 24 -15 51 -2 43 8 -5 7 0 -2 11 -10 13
-11 16 -2 11 9 -5 13 -3 11 5 -1 8 -1 21 0 29 3 30 21 -13 21 -50z m1590 -1
c0 -11 -4 -18 -9 -15 -5 3 -12 -1 -15 -10 -4 -9 -13 -14 -22 -10 -8 3 -12 2
-9 -4 3 -6 3 -10 -2 -11 -4 0 -16 -2 -25 -4 -30 -6 -2 32 40 54 20 11 38 20
40 21 1 0 2 -9 2 -21z m314 -32 c-3 -11 -13 -35 -20 -53 l-14 -34 -53 21 c-28
12 -68 27 -87 34 -19 6 -36 19 -38 28 -5 22 4 21 76 -8 34 -14 66 -25 72 -25
6 0 18 16 26 35 10 24 19 33 29 29 10 -4 13 -13 9 -27z m-1864 -49 c0 -35 -4
-48 -12 -45 -7 2 -13 8 -13 13 0 5 -4 15 -8 22 -5 6 -4 12 1 12 5 0 8 16 7 35
-2 29 0 34 11 24 9 -7 14 -31 14 -61z m1506 6 c-3 -9 -6 -18 -6 -20 0 -3 -4
-2 -10 1 -5 3 -10 1 -10 -5 0 -6 -4 -8 -10 -5 -5 3 -10 1 -10 -4 0 -6 -3 -10
-7 -10 -5 1 -10 0 -13 -1 -53 -20 -42 12 13 39 50 25 61 26 53 5z m-1457 -51
c16 -55 14 -75 -6 -71 -9 2 -16 8 -16 13 1 6 -4 16 -10 24 -10 12 -8 14 8 8
20 -7 20 -7 1 8 -12 9 -15 15 -7 15 10 0 11 3 2 13 -11 14 -6 27 10 27 5 0 13
-17 18 -37z m1405 -28 c-4 -8 -10 -13 -14 -10 -5 3 -10 0 -12 -7 -4 -10 -78
-21 -78 -11 0 2 15 12 33 23 39 24 79 27 71 5z m-1560 -36 c34 -51 31 -79 -11
-99 -18 -8 -33 -19 -33 -24 0 -19 -34 -46 -56 -46 -16 0 -33 13 -54 42 -17 23
-29 45 -28 49 2 5 145 115 154 119 1 0 13 -18 28 -41z m217 -21 c13 -51 9 -63
-16 -43 -11 9 -13 14 -5 10 8 -4 6 1 -4 9 -15 12 -16 16 -5 16 12 0 12 2 -1
10 -13 9 -13 10 0 10 10 0 11 3 4 8 -6 4 -11 15 -11 24 0 30 26 0 38 -44z
m1542 41 c47 -24 77 -62 77 -96 0 -89 -110 -98 -177 -13 -20 24 -15 71 9 97
23 25 57 29 91 12z m-257 -55 c-4 -9 -9 -14 -13 -11 -3 4 -13 1 -21 -6 -13
-10 -14 -9 -7 2 6 11 5 12 -6 5 -18 -11 -59 -13 -59 -4 0 13 95 42 109 33 2
-1 1 -10 -3 -19z m-1218 -56 c8 -30 8 -38 -3 -38 -12 0 -22 14 -23 34 0 5 -6
13 -14 17 -10 7 -10 9 2 9 12 0 13 2 1 9 -7 5 -10 14 -6 21 11 18 31 -7 43
-52z m53 -19 c28 -39 33 -69 13 -69 -10 0 -14 3 -11 7 4 3 -1 12 -11 20 -11
10 -12 12 -2 8 8 -4 6 1 -4 9 -11 9 -16 16 -10 16 5 0 2 5 -6 10 -13 9 -13 10
0 10 13 0 13 1 0 11 -12 9 -12 10 -1 7 8 -3 23 -15 32 -29z m1104 21 c-3 -5
-13 -10 -21 -10 -8 0 -14 -4 -14 -10 0 -5 -5 -10 -11 -10 -5 0 -8 4 -5 9 7 11
-13 9 -31 -2 -8 -5 -13 -3 -13 5 0 9 -3 9 -10 -2 -6 -9 -10 -10 -10 -3 0 7 8
17 18 22 23 14 105 14 97 1z m-1020 -83 c14 -24 25 -47 25 -50 0 -13 -17 -7
-39 12 -16 14 -18 21 -9 24 7 3 4 6 -7 6 -17 1 -17 3 -5 11 11 7 11 10 2 10
-7 0 -11 4 -8 9 4 5 0 12 -6 14 -8 3 -6 6 4 6 10 1 28 -17 43 -42z m949 28
c-4 -8 -10 -13 -14 -10 -5 3 -11 1 -15 -5 -3 -5 -11 -10 -16 -10 -6 0 -8 4 -5
9 7 11 -13 9 -31 -2 -8 -5 -13 -3 -13 3 0 6 -6 8 -12 5 -7 -4 -4 1 6 9 27 21
108 22 100 1z m-1230 -13 c2 -4 -17 -32 -44 -62 -27 -30 -49 -59 -50 -64 0 -6
11 -21 25 -36 16 -17 21 -30 16 -39 -7 -11 -18 -5 -52 26 l-43 40 60 71 c56
67 77 82 88 64z m1464 -35 c72 -65 54 -160 -30 -160 -45 0 -108 69 -108 117 0
71 81 96 138 43z m-1109 -14 c36 -44 38 -53 10 -53 -11 0 -17 5 -14 10 3 6 -2
10 -12 10 -15 0 -16 2 -3 10 12 8 12 10 -5 10 -17 0 -17 2 -5 10 12 8 12 10
-5 10 -15 0 -17 2 -6 9 11 7 10 10 -5 14 -15 4 -16 5 -2 6 9 0 30 -16 47 -36z
m770 31 c36 -7 37 -25 2 -31 -15 -2 -20 1 -15 9 6 10 4 11 -7 1 -7 -7 -17 -13
-22 -13 -4 0 -5 6 -1 13 5 8 2 8 -9 -2 -12 -9 -17 -10 -17 -2 0 7 -6 9 -12 6
-7 -4 -4 1 6 9 22 18 30 19 75 10z m-685 -62 c10 -12 24 -18 34 -15 13 6 13 8
-4 14 -16 6 -16 8 -2 8 18 1 88 -55 88 -70 0 -5 -9 -9 -21 -9 -11 0 -18 4 -15
9 3 5 -4 11 -15 14 -12 3 -18 10 -14 16 3 6 -1 11 -10 11 -11 0 -15 -5 -11
-15 4 -10 -1 -15 -15 -15 -11 0 -17 5 -14 10 3 6 -4 10 -17 10 -18 0 -20 2 -8
10 13 8 12 10 -3 10 -10 0 -15 5 -12 10 3 6 2 10 -3 10 -5 0 -9 7 -9 14 0 18
23 8 51 -22z m614 22 c31 -9 23 -26 -13 -30 -22 -2 -26 -1 -15 6 11 7 6 9 -17
6 -21 -2 -30 0 -26 7 4 6 0 8 -11 4 -10 -4 -15 -3 -11 3 7 11 58 13 93 4z
m-71 -28 c17 -1 19 -5 12 -18 -8 -15 -19 -17 -72 -9 -5 0 -5 6 -1 13 4 6 3 8
-4 5 -5 -4 -18 -4 -27 -1 -28 11 5 25 40 17 17 -4 40 -7 52 -7z m-367 -35 c19
-16 32 -32 28 -36 -10 -10 -60 3 -54 14 3 5 -4 11 -15 14 -12 3 -18 10 -15 16
3 5 -2 12 -11 14 -12 3 -10 5 7 6 15 1 40 -11 60 -28z m260 13 c22 -9 38 -20
35 -24 -6 -10 -73 -6 -83 5 -4 4 4 4 18 1 19 -6 21 -5 10 3 -8 6 -22 8 -31 6
-9 -3 -16 1 -16 10 0 19 17 19 67 -1z m-180 -11 c14 -10 38 -18 54 -19 24 -2
26 0 13 8 -10 5 -21 7 -26 4 -5 -3 -11 1 -15 9 -8 22 32 19 73 -6 29 -18 32
-23 19 -30 -10 -6 -27 -5 -44 1 -20 8 -29 8 -34 -1 -6 -8 -17 -8 -44 1 -21 7
-35 15 -31 18 3 3 -5 12 -17 19 l-23 12 25 1 c14 0 37 -8 50 -17z m-525 -13
c7 -11 -82 -170 -95 -170 -23 0 -16 25 27 99 47 80 56 90 68 71z m1090 -89
c36 -72 41 -90 29 -95 -10 -4 -20 6 -31 29 -19 39 -21 40 -57 24 l-25 -12 19
-37 c18 -35 18 -50 -2 -50 -4 0 -27 38 -50 85 -32 63 -39 88 -31 96 8 8 16 3
28 -22 10 -19 19 -35 20 -37 5 -6 55 22 55 30 0 5 -7 22 -15 37 -14 27 -11 41
7 41 4 0 28 -40 53 -89z m-889 -6 c26 -26 29 -55 7 -62 -7 -3 -17 7 -23 21
-20 53 -77 19 -87 -52 -5 -35 -2 -41 16 -47 13 -4 28 -1 37 6 12 10 17 10 27
0 25 -26 -55 -55 -90 -33 -41 26 -32 115 17 164 35 35 63 36 96 3z m629 -25
c15 -16 16 -23 6 -33 -9 -9 -14 -9 -20 1 -5 8 -19 12 -32 10 -20 -2 -25 -10
-27 -41 -4 -49 20 -89 51 -85 14 2 23 11 25 26 2 15 9 22 20 20 12 -2 16 -11
14 -28 -5 -36 -26 -53 -63 -53 -38 0 -64 27 -79 83 -23 86 53 158 105 100z
m-247 -32 c15 -12 16 -38 2 -38 -6 0 -19 5 -29 12 -21 13 -56 4 -46 -12 4 -6
23 -17 43 -26 42 -17 52 -29 52 -63 0 -34 -28 -61 -62 -61 -30 0 -68 30 -68
55 0 23 25 18 43 -7 12 -19 19 -21 33 -12 32 19 27 34 -19 53 -47 20 -63 46
-52 82 12 36 67 45 103 17z"/>
<path d="M1966 2361 c-15 -16 -15 -19 -1 -31 18 -15 20 -14 29 23 7 31 -4 35
-28 8z"/>
<path d="M1240 2276 c0 -2 7 -7 16 -10 8 -3 12 -2 9 4 -6 10 -25 14 -25 6z"/>
<path d="M1376 2139 c-14 -11 -26 -27 -26 -34 0 -8 -42 -34 -92 -59 l-93 -44
44 -1 c58 -1 179 53 183 82 7 49 68 42 68 -8 0 -23 -17 -35 -48 -35 -9 0 -28
-9 -42 -20 l-25 -20 56 0 c42 0 60 5 77 20 35 33 33 84 -4 118 -31 28 -64 28
-98 1z"/>
<path d="M1030 1851 l0 -140 43 -3 42 -3 0 -235 0 -235 -42 -3 -43 -3 0 -57
c0 -56 0 -56 -20 -37 -11 11 -38 61 -59 110 -22 49 -42 83 -45 75 -11 -34 -26
-151 -26 -201 0 -111 50 -239 120 -309 22 -22 67 -53 100 -70 64 -32 70 -29
50 25 -9 23 -8 26 5 21 46 -17 189 -37 330 -45 130 -7 174 -13 233 -34 51 -18
74 -22 77 -14 2 7 11 39 20 72 26 93 70 182 136 272 76 105 110 178 116 254
l6 60 31 -30 c18 -17 35 -31 38 -31 10 0 -79 216 -106 259 -24 37 -152 161
-167 161 -4 0 -12 -28 -16 -62 l-8 -63 -6 87 c-10 141 -72 238 -188 292 -43
20 -65 21 -333 24 l-288 3 0 -140z m615 74 c101 -50 159 -149 159 -275 0 -96
-27 -164 -88 -225 -60 -59 -116 -81 -243 -91 -64 -5 -86 -3 -102 9 -20 13 -13
15 91 19 129 5 173 20 231 76 67 64 82 103 82 212 0 107 -15 148 -77 207 -65
63 -87 67 -360 71 l-248 4 0 -81 0 -81 45 0 45 0 0 -300 0 -300 -45 0 -45 0 0
-61 c0 -37 -4 -58 -10 -54 -5 3 -10 37 -10 76 l0 69 40 0 40 0 0 270 0 270
-40 0 -40 0 0 106 0 105 268 -3 c242 -3 271 -5 307 -23z m-120 -189 c41 -17
55 -42 55 -96 0 -60 -38 -96 -112 -105 -95 -12 -92 -15 -98 108 l-5 107 63 0
c34 0 78 -6 97 -14z m474 -227 c22 -38 18 -51 -8 -26 -12 10 -13 8 -6 -8 59
-153 45 -237 -61 -385 -66 -92 -131 -217 -155 -298 -9 -32 -16 -41 -28 -37
-51 20 -156 35 -306 44 -183 11 -248 25 -334 72 -50 28 -52 29 -37 7 9 -12 16
-34 16 -48 -1 -23 -4 -21 -50 27 -56 61 -88 137 -97 231 l-6 64 49 -52 c52
-56 114 -92 189 -111 46 -12 47 -12 24 -25 -13 -7 -40 -11 -59 -9 l-35 5 35
-17 c23 -11 61 -17 112 -17 86 -1 114 12 156 75 23 33 23 38 16 172 l-7 137
57 0 c57 0 58 -1 108 -55 61 -67 93 -85 150 -85 97 1 170 84 189 217 10 68 3
145 -11 123 -15 -25 -20 9 -8 59 l12 52 36 -36 c20 -20 47 -54 59 -76z m-139
-101 c0 -101 -64 -188 -140 -188 -29 0 -70 23 -104 59 -27 28 -28 31 -10 37
89 32 148 79 191 151 l25 43 19 -24 c13 -17 19 -40 19 -78z m-504 -413 c-27
-20 -86 -20 -86 0 0 11 12 15 53 15 48 -1 50 -2 33 -15z"/>
<path d="M1400 1645 l0 -85 45 0 c51 0 99 20 109 45 10 27 7 70 -7 89 -13 18
-71 35 -119 36 l-28 0 0 -85z m101 35 c21 -12 26 -52 7 -67 -7 -6 -25 -13 -40
-15 -27 -5 -28 -4 -28 43 0 43 3 49 21 49 11 0 29 -5 40 -10z"/>
<path d="M1450 1644 c0 -33 2 -35 28 -32 21 2 28 9 30 29 2 20 -2 28 -20 33
-36 9 -38 8 -38 -30z"/>
<path d="M1805 1014 c-20 -30 -47 -81 -60 -112 -13 -31 -27 -57 -32 -57 -4 0
-46 6 -92 14 -84 13 -422 13 -398 0 7 -4 86 -9 177 -13 142 -6 254 -20 320
-41 14 -4 22 9 45 72 15 43 40 104 56 136 16 31 27 57 25 57 -2 0 -21 -25 -41
-56z"/>
<path d="M1810 1471 c0 -28 -84 -111 -139 -139 l-61 -30 36 -31 c40 -35 94
-42 132 -15 48 33 86 158 63 203 -12 21 -31 29 -31 12z"/>
<path d="M442 2078 c-17 -17 -15 -31 7 -45 15 -10 22 -9 31 2 26 31 -9 72 -38
43z"/>
<path d="M333 1222 c-26 -4 -29 -20 -10 -46 17 -23 47 -11 47 19 0 28 -7 32
-37 27z"/>
<path d="M518 777 c-15 -12 -15 -15 2 -37 11 -15 23 -21 34 -17 21 8 20 20 -1
46 -15 17 -21 18 -35 8z"/>
<path d="M448 726 c-16 -11 -16 -15 -2 -34 17 -25 49 -29 57 -8 6 14 -18 56
-31 56 -4 0 -15 -6 -24 -14z"/>
<path d="M2266 784 c-9 -8 -16 -20 -16 -25 0 -37 65 -85 100 -74 46 14 30 73
-26 100 -39 18 -39 19 -58 -1z"/>
<path d="M2080 585 c-31 -37 48 -124 88 -98 27 16 25 48 -3 82 -29 34 -65 41
-85 16z"/>
</g>
</svg>
